<svg xmlns="http://www.w3.org/2000/svg" width="200" height="40" fill="#FFF" class="" viewBox="0 0 200 40"><path fill="var(--userLogoColor, #FFF)" d="M106.908 15.32a3.285 3.285 0 00-3.273 3.273v9.945h-3.014V12.822h3.014v1.326a4.779 4.779 0 013.894-1.9 5.233 5.233 0 014.668 2.662c1.173-1.642 2.862-2.639 4.691-2.662 3.437 0 5.571 2.768 5.583 6.192v10.005h-3.014v-9.97a3.289 3.289 0 00-1.469-3.22 3.281 3.281 0 00-3.539-.017 3.285 3.285 0 00-1.454 3.237v9.946h-2.897v-9.934a3.284 3.284 0 00-3.273-3.272l.083.106zm31.666-.82a7.269 7.269 0 00-5.313-2.24c-4.492 0-7.623 3.8-7.623 8.21 0 4.41 3.166 8.21 7.623 8.21a7.27 7.27 0 005.313-2.241v1.783h3.014V12.506h-3.014v1.993zm-9.969 6.098a5.001 5.001 0 012.369-4.668c1.607-.985 3.519-.985 5.231 0a5.047 5.047 0 012.369 4.668 5 5 0 01-2.369 4.668c-1.607.985-3.518.985-5.231 0a5.038 5.038 0 01-2.369-4.668zM58 5v23.433h3.014V17.244h7.248v-2.908h-7.248V7.932h9.418V5H58zm17.886 4.762c1.09 0 1.97-.88 1.97-1.97 0-1.091-.891-1.854-1.97-1.854-1.08 0-1.97.88-1.97 1.97 0 .528.21 1.021.586 1.408.375.387.868.586 1.407.586l-.023-.14zm-1.525 2.955v15.716h2.897V12.717h-2.99.093zm14.215-.469c-4.011 0-6.803 3.519-6.803 7.413 0 3.893 2.815 7.388 6.803 7.388a5.979 5.979 0 004.445-1.864v2.087a4.926 4.926 0 01-1.36 3.366 4.692 4.692 0 01-3.355 1.408 4.926 4.926 0 01-2.674-.892l-1.525 2.616a7.74 7.74 0 0011.928-6.533V12.694h-3.014V14.1a5.981 5.981 0 00-4.445-1.865v.012zM84.8 19.661a4.105 4.105 0 011.946-3.87 4.13 4.13 0 014.34 0 4.153 4.153 0 011.947 3.87 4.104 4.104 0 01-1.947 3.87c-1.337.82-3.014.82-4.34 0s-2.076-2.322-1.947-3.87z"></path><title>Figma logo</title></svg>