<svg xmlns="http://www.w3.org/2000/svg" width="200" height="40" fill="none" class="" preserveAspectRatio="xMidYMid meet" viewBox="0 0 200 40"><path fill="var(--userLogoColor, #241239)" d="M84.838 30.01V23.8c0-.767-.218-1.385-.653-1.852a2.248 2.248 0 00-1.727-.702 2.32 2.32 0 00-1.764.702c-.443.467-.664 1.085-.664 1.853v6.209l-4.332.035V12.484h4.332V18.6c1.002-.902 2.27-1.353 3.806-1.353 1.602 0 2.891.51 3.868 1.528.976 1.019 1.464 2.287 1.464 3.805v7.436l-4.33-.006zm9.839-14.35a2.48 2.48 0 01-4.232-1.753c-.01-.66.253-1.293.727-1.752a2.477 2.477 0 013.505 0c.474.46.736 1.093.726 1.752.01.66-.252 1.294-.726 1.752zm.4 14.35h-4.332V17.617h4.332V30.01zM67.174 12.108c1.244-.02 2.482.179 3.656.59 1.068.391 1.895.854 2.48 1.388.38.343.947.902.947.902l-2.973 3.038s-.596-.425-.879-.632c-1.152-.852-2.237-1.277-3.256-1.276a3.018 3.018 0 00-1.496.335c-.401.224-.602.528-.602.913 0 .6.45 1.01 1.352 1.227l3.2.726c3.339.752 5.008 2.513 5.008 5.284 0 1.536-.632 2.884-1.896 4.043-1.264 1.16-3.059 1.74-5.384 1.738-1.569 0-2.946-.225-4.132-.676-1.186-.45-2.139-1.026-2.86-1.727l-1.006-1.008 3.424-3.002s.653.557.913.825a5.221 5.221 0 003.756 1.552c.699 0 1.246-.134 1.64-.4.394-.267.59-.582.587-.948a1.127 1.127 0 00-.538-1.002c-.359-.228-.93-.428-1.715-.599l-2.753-.6c-1.337-.282-2.418-.861-3.244-1.738-.826-.876-1.239-1.982-1.239-3.317 0-1.642.66-2.989 1.978-4.042 1.32-1.053 2.996-1.585 5.032-1.594zm53.411 16.157l-1.776-2.815c-.233.181-.475.35-.727.504-.293.21-.64.331-1 .35-.652 0-.978-.383-.978-1.15v-.255h.011v-3.702h3.95v-3.58h-3.95v-3.634h-4.341v12.243c0 1.37.434 2.396 1.302 3.08.867.683 1.928 1.025 3.18 1.026a6.558 6.558 0 002.265-.389 3.942 3.942 0 001.689-1.106c.157-.167.284-.36.375-.572zm-11.913-9.234a5.788 5.788 0 00-4.256-1.79c-1.422 0-2.532.426-3.329 1.278v-.902h-4.31v17.951h4.307V23.826a2.496 2.496 0 01.725-1.803 2.476 2.476 0 013.555 0 2.6 2.6 0 010 3.606 2.369 2.369 0 01-1.777.75 7.015 7.015 0 01-.901-.053V30.2a6.619 6.619 0 001.653.186 5.826 5.826 0 004.321-1.833c1.194-1.218 1.791-2.813 1.79-4.782-.002-1.97-.594-3.55-1.778-4.74z"></path><path fill="var(--userLogoColor, #23CC6B)" d="M133.207 31.04a18.9 18.9 0 01-6.936-1.31 2.808 2.808 0 01-1.757-2.807l.621-10.13 3.082.189-.609 9.953a15.779 15.779 0 0011.198-.02c-.076-1.117-.474-6.985-.717-10.41-3.083 1.554-5.688 1.676-7.604.328a4.486 4.486 0 01-1.896-3.727A4.763 4.763 0 01130.57 9.2a4.52 4.52 0 013.834-.71c1.462.393 2.741 1.516 3.426 3.001l-2.806 1.29c-.301-.653-.846-1.155-1.422-1.312a1.421 1.421 0 00-1.253.256 1.687 1.687 0 00-.676 1.38c-.016.472.203.923.584 1.203 1.174.826 3.544.198 6.339-1.68a1.545 1.545 0 011.627-.06c.717.41.758.991.814 1.797l.862 12.52a2.793 2.793 0 01-1.769 2.83 18.737 18.737 0 01-6.923 1.326z"></path><title>Shipt logo</title></svg>